<svg id="visual" viewBox="0 0 675 900" width="675" height="900" xmlns="http://www.w3.org/2000/svg" xmlns:xlink="http://www.w3.org/1999/xlink" version="1.1"><rect x="0" y="0" width="675" height="900" fill="#001220"></rect><path d="M0 237L16 246.8C32 256.7 64 276.3 96.2 274.7C128.3 273 160.7 250 192.8 252.2C225 254.3 257 281.7 289.2 303.7C321.3 325.7 353.7 342.3 385.8 334.5C418 326.7 450 294.3 482.2 295.3C514.3 296.3 546.7 330.7 578.8 331.8C611 333 643 301 659 285L675 269L675 0L659 0C643 0 611 0 578.8 0C546.7 0 514.3 0 482.2 0C450 0 418 0 385.8 0C353.7 0 321.3 0 289.2 0C257 0 225 0 192.8 0C160.7 0 128.3 0 96.2 0C64 0 32 0 16 0L0 0Z" fill="#fa7268"></path><path d="M0 185L16 191.3C32 197.7 64 210.3 96.2 213.8C128.3 217.3 160.7 211.7 192.8 213.2C225 214.7 257 223.3 289.2 229.2C321.3 235 353.7 238 385.8 236.2C418 234.3 450 227.7 482.2 217C514.3 206.3 546.7 191.7 578.8 195.8C611 200 643 223 659 234.5L675 246L675 0L659 0C643 0 611 0 578.8 0C546.7 0 514.3 0 482.2 0C450 0 418 0 385.8 0C353.7 0 321.3 0 289.2 0C257 0 225 0 192.8 0C160.7 0 128.3 0 96.2 0C64 0 32 0 16 0L0 0Z" fill="#ef5f67"></path><path d="M0 240L16 237.5C32 235 64 230 96.2 217.7C128.3 205.3 160.7 185.7 192.8 177.3C225 169 257 172 289.2 169C321.3 166 353.7 157 385.8 166.5C418 176 450 204 482.2 216.2C514.3 228.3 546.7 224.7 578.8 225.3C611 226 643 231 659 233.5L675 236L675 0L659 0C643 0 611 0 578.8 0C546.7 0 514.3 0 482.2 0C450 0 418 0 385.8 0C353.7 0 321.3 0 289.2 0C257 0 225 0 192.8 0C160.7 0 128.3 0 96.2 0C64 0 32 0 16 0L0 0Z" fill="#e34c67"></path><path d="M0 158L16 157.7C32 157.3 64 156.7 96.2 150C128.3 143.3 160.7 130.7 192.8 125.7C225 120.7 257 123.3 289.2 132.3C321.3 141.3 353.7 156.7 385.8 163.2C418 169.7 450 167.3 482.2 163.5C514.3 159.7 546.7 154.3 578.8 144.5C611 134.7 643 120.3 659 113.2L675 106L675 0L659 0C643 0 611 0 578.8 0C546.7 0 514.3 0 482.2 0C450 0 418 0 385.8 0C353.7 0 321.3 0 289.2 0C257 0 225 0 192.8 0C160.7 0 128.3 0 96.2 0C64 0 32 0 16 0L0 0Z" fill="#d53867"></path><path d="M0 46L16 49.7C32 53.3 64 60.7 96.2 61C128.3 61.3 160.7 54.7 192.8 60.8C225 67 257 86 289.2 90.3C321.3 94.7 353.7 84.3 385.8 84.7C418 85 450 96 482.2 96.5C514.3 97 546.7 87 578.8 75.7C611 64.3 643 51.7 659 45.3L675 39L675 0L659 0C643 0 611 0 578.8 0C546.7 0 514.3 0 482.2 0C450 0 418 0 385.8 0C353.7 0 321.3 0 289.2 0C257 0 225 0 192.8 0C160.7 0 128.3 0 96.2 0C64 0 32 0 16 0L0 0Z" fill="#c62368"></path></svg>